<svg height="32" viewBox="0 0 32 32" width="32" xmlns="http://www.w3.org/2000/svg"><path d="m16 0c-8.833 0-16 7.167-16 16s7.167 16 16 16 16-7.167 16-16-7.167-16-16-16zm15.359 16c0 .542-.031 1.057-.094 1.568l-2.724-.318c.036-.417.068-.833.068-1.25 0-.385-.031-.802-.068-1.182l2.724-.323c.094.516.094.995.094 1.505zm-30.718 0c0-.51.031-1.026.063-1.536l2.719.323c-.031.411-.063.797-.063 1.214s.031.802.063 1.214l-2.719.323c-.063-.51-.063-1.026-.063-1.536zm27.291-4.13 2.563-.958c.354.958.578 1.953.74 2.974l-2.724.323c-.13-.802-.318-1.599-.578-2.339zm.068 4.13c0 .802-.094 1.568-.224 2.339l-2.688-.609c.094-.547.156-1.12.156-1.729s-.063-1.214-.156-1.792l2.688-.609c.156.771.224 1.568.224 2.401zm-12 8.609c-4.755-.005-8.604-3.854-8.609-8.609.005-4.755 3.854-8.604 8.609-8.609 4.755.005 8.604 3.854 8.609 8.609.01 4.745-3.828 8.599-8.573 8.609zm.286 3.391v-2.75c1.182-.042 2.344-.302 3.427-.771l1.182 2.5c-1.453.641-3.021.99-4.609 1.021zm-5.244-1.052 1.214-2.5c1.057.479 2.208.766 3.427.802v2.75c-1.604-.031-3.182-.391-4.641-1.052zm-7.042-10.948c0-.833.094-1.63.255-2.432l2.688.609c-.13.599-.193 1.208-.193 1.823 0 .578.068 1.151.161 1.698l-2.688.604c-.156-.755-.234-1.531-.224-2.302zm11.682-12v2.75c-1.172.042-2.323.302-3.396.771l-1.182-2.495c1.443-.641 3-.984 4.578-1.026zm5.245 1.057-1.214 2.495c-1.078-.484-2.245-.745-3.427-.766v-2.755c1.667 0 3.234.385 4.641 1.026zm6.781 6.209c-.307-.75-.682-1.464-1.12-2.146l2.245-1.536c.542.865 1.021 1.76 1.406 2.719zm-.088 1.724-2.693.609c-.307-1.13-.828-2.198-1.536-3.135l2.177-1.724c.958 1.276 1.667 2.682 2.052 4.25zm-4.61-3.006c-.766-.891-1.688-1.625-2.724-2.177l1.219-2.495c1.406.729 2.656 1.729 3.677 2.943zm-.802-4.994 1.281-2.427c.896.51 1.724 1.083 2.526 1.755l-1.823 2.083c-.615-.536-1.276-1.005-1.984-1.411zm-.547-.287c-.719-.354-1.469-.641-2.24-.865l.672-2.656c.995.292 1.953.641 2.88 1.12zm-2.875-1.021c-.802-.193-1.604-.292-2.432-.323v-2.719c1.057.031 2.109.156 3.104.385zm-3.041-.323c-.807.031-1.609.125-2.401.292l-.641-2.661c.958-.224 1.984-.349 3.042-.349zm-3.042.448c-.781.224-1.542.51-2.271.865l-1.281-2.432c.922-.458 1.885-.823 2.88-1.089zm-2.818 1.151c-.703.396-1.365.854-1.979 1.38l-1.828-2.052c.802-.672 1.635-1.245 2.531-1.755zm.641.355 1.188 2.495c-1.057.542-1.953 1.281-2.724 2.146l-2.141-1.729c1.031-1.193 2.281-2.182 3.677-2.911zm-4.062 3.421 2.146 1.729c-.708.938-1.229 2.005-1.536 3.135l-2.688-.609c.417-1.599 1.12-3.036 2.078-4.255zm-2.146 2.464-2.557-.958c.38-.958.865-1.885 1.438-2.719l2.24 1.568c-.453.656-.828 1.365-1.12 2.109zm-.224.609c-.255.771-.479 1.536-.573 2.37l-2.719-.318c.156-1.026.38-2.052.734-3.01zm-.604 6.016c.125.802.318 1.599.573 2.37l-2.557.958c-.365-.969-.609-1.979-.74-3.01zm.828 2.943c.323.771.708 1.474 1.12 2.146l-2.24 1.536c-.578-.839-1.063-1.74-1.438-2.688zm.036-1.855 2.688-.609c.286 1.156.833 2.245 1.505 3.172l-2.146 1.724c-.969-1.276-1.661-2.734-2.047-4.286zm4.573 3.042c.771.896 1.698 1.661 2.755 2.208l-1.219 2.495c-1.417-.745-2.677-1.755-3.714-2.974zm.958 5.083-1.276 2.438c-.901-.505-1.75-1.094-2.531-1.766l1.828-2.047c.604.547 1.245.995 1.979 1.375zm.547.292c.703.354 1.474.641 2.271.865l-.672 2.656c-.995-.266-1.958-.63-2.88-1.089zm2.881 1.026c.766.156 1.568.255 2.401.286v2.719c-1.031-.036-2.063-.151-3.073-.349zm3.041.287c.802-.026 1.609-.125 2.401-.292l.635 2.656c-.995.224-2.016.354-3.036.385zm3.005-.448c.781-.219 1.542-.51 2.271-.865l1.281 2.432c-.917.469-1.88.833-2.88 1.089zm2.782-1.157c.708-.38 1.38-.859 1.984-1.375l1.828 2.047c-.786.672-1.63 1.26-2.531 1.766zm-.636-.348-1.188-2.495c1.052-.552 1.99-1.302 2.755-2.208l2.141 1.729c-1.036 1.214-2.297 2.224-3.708 2.974zm4.094-3.454-2.141-1.729c.708-.943 1.219-2.026 1.5-3.167l2.693.604c-.417 1.542-1.109 3-2.052 4.292zm2.083-2.432 2.557.958c-.385.958-.865 1.859-1.438 2.719l-2.245-1.568c.453-.672.833-1.375 1.125-2.109zm.224-.609c.255-.734.448-1.536.573-2.333l2.719.318c-.146 1.016-.391 2.01-.734 2.974zm.604-13.12-2.24 1.536c-.479-.656-1.016-1.266-1.599-1.823l1.823-2.052c.74.74 1.411 1.505 2.016 2.339zm-22.911-2.37 1.823 2.047c-.604.547-1.12 1.156-1.599 1.828l-2.24-1.568c.573-.849 1.255-1.625 2.016-2.307zm-2.047 20.287 2.24-1.531c.479.635 1.026 1.245 1.599 1.823l-1.823 2.047c-.729-.729-1.406-1.51-2.016-2.339zm22.88 2.307-1.823-2.047c.573-.547 1.12-1.151 1.599-1.792l2.24 1.568c-.609.797-1.281 1.563-2.016 2.271z"/></svg>